# xmcd
#
# Track frame offsets:
#	150
#	13729
#	40100
#	64886
#	84236
#	111741
#	135927
#	160402
#	192924
#	206451
#	231341
#	261221
#	278808
#	300829
#
# Disc length: 4313 seconds
#
# Revision: 2
# Processed by: cddbd v1.5PL3 Copyright (c) Steve Scherf et al.
# Submitted via: audiograbber 1.83.01
#
DISCID=bc10d70e
DTITLE=Nobby Reed Project - Live at Middle Earth Music Hall (Set 1)
DYEAR=2004
DGENRE=Blues
TTITLE0=Kiss Me
TTITLE1=Fill Me Up
TTITLE2=Condition Blue
TTITLE3=Have You Heard
TTITLE4=Poor Mans Blues
TTITLE5=Only One
TTITLE6=Godd Times
TTITLE7=Blue Bug
TTITLE8=Thick and Thin
TTITLE9=Dance Away Your Blues
TTITLE10=At The Bottom
TTITLE11=I-89
TTITLE12=The Rev
TTITLE13=How You Feel
EXTD=
EXTT0=
EXTT1=
EXTT2=
EXTT3=
EXTT4=
EXTT5=
EXTT6=
EXTT7=
EXTT8=
EXTT9=
EXTT10=
EXTT11=
EXTT12=
EXTT13=
PLAYORDER=
